/* XPM */
static char *_f702e8f2902436b991890558459fd01dW7HwEpjNRBhfO56[] = {
/* columns rows colors chars-per-pixel */
"69 120 8 1 ",
"  c black",
". c #3A4E68",
"X c gray64",
"o c gray40",
"O c #36AF0C",
"+ c white",
"@ c gray80",
"# c #486182",
/* pixels */
"#################################++++++++++++++++++##################",
"#################################++++++++++++++++++##################",
"#################################++++++++++++++++++##################",
"###########################++++++@@@@@@@@@+++@@@+++++++++############",
"###########################++++++@@@@@@@@@+++@@@+++++++++############",
"###########################++++++@@@@@@@@@+++@@@+++++++++############",
"########################@@@@@@@@@@@@@@@@@@@@@+++@@@+++++++++#########",
"########################@@@@@@@@@@@@@@@@@@@@@+++@@@+++++++++#########",
"########################@@@@@@@@@@@@@@@@@@@@@+++@@@+++++++++#########",
"#####################@@@@@@@@@@@@@@@@@@@@@@@@@@@+++@@@+++++++++######",
"#####################@@@@@@@@@@@@@@@@@@@@@@@@@@@+++@@@+++++++++######",
"#####################@@@@@@@@@@@@@@@@@@@@@@@@@@@+++@@@+++++++++######",
"##################@@@@@@@@@@@@@@@@@@@@@@@@@@@@@@@@@+++@@@+++++++++###",
"##################@@@@@@@@@@@@@@@@@@@@@@@@@@@@@@@@@+++@@@+++++++++###",
"##################@@@@@@@@@@@@@@@@@@@@@@@@@@@@@@@@@+++@@@+++++++++###",
"##################@@@@@@@@@@@@@@@@@@@@@@@@@@@@@@@@@@@@++++++++++++###",
"##################@@@@@@@@@@@@@@@@@@@@@@@@@@@@@@@@@@@@++++++++++++###",
"##################@@@@@@@@@@@@@@@@@@@@@@@@@@@@@@@@@@@@++++++++++++###",
"###############+++@@@@@@@@@@@@@@@@@@@@@@@@@@@@@@@@@+++@@@++++++++++++",
"###############+++@@@@@@@@@@@@@@@@@@@@@@@@@@@@@@@@@+++@@@++++++++++++",
"###############+++@@@@@@@@@@@@@@@@@@@@@@@@@@@@@@@@@+++@@@++++++++++++",
"###############ooo+++@@@@@@@@@@@@@@@@@@@@@@@@@@@@@@@@@+++@@@+++++++++",
"###############ooo+++@@@@@@@@@@@@@@@@@@@@@@@@@@@@@@@@@+++@@@+++++++++",
"###############ooo+++@@@@@@@@@@@@@@@@@@@@@@@@@@@@@@@@@+++@@@+++++++++",
"###############+++ooo+++@@@@@@@@@@@@@@@@@@@@@@@@@@@@@@@@@++++++++++++",
"###############+++ooo+++@@@@@@@@@@@@@@@@@@@@@@@@@@@@@@@@@++++++++++++",
"###############+++ooo+++@@@@@@@@@@@@@@@@@@@@@@@@@@@@@@@@@++++++++++++",
"###############@@@+++ooo+++@@@@@@@@@@@@@@@+++@@@@@@@@@@@@@@@+++++++++",
"###############@@@+++ooo+++@@@@@@@@@@@@@@@+++@@@@@@@@@@@@@@@+++++++++",
"###############@@@+++ooo+++@@@@@@@@@@@@@@@+++@@@@@@@@@@@@@@@+++++++++",
"###############@@@@@@+++ooo+++@@@@@@                                 ",
"###############@@@@@@+++ooo+++@@@@@@                                 ",
"###############@@@@@@+++ooo+++@@@@@@                                 ",
"###############@@@@@@+++ooo+++      @@@@@@   OOO      +++@@@   OOO   ",
"###############@@@@@@+++ooo+++      @@@@@@   OOO      +++@@@   OOO   ",
"###############@@@@@@+++ooo+++      @@@@@@   OOO      +++@@@   OOO   ",
"##################@@@@@@+++ooo@@@@@@@@@@@@@@@   @@@@@@@@@++++++   ###",
"##################@@@@@@+++ooo@@@@@@@@@@@@@@@   @@@@@@@@@++++++   ###",
"##################@@@@@@+++ooo@@@@@@@@@@@@@@@   @@@@@@@@@++++++   ###",
"##################@@@@@@+++ooo@@@@@@@@@@@@@@@@@@@@@@@@++++++++++++###",
"##################@@@@@@+++ooo@@@@@@@@@@@@@@@@@@@@@@@@++++++++++++###",
"##################@@@@@@+++ooo@@@@@@@@@@@@@@@@@@@@@@@@++++++++++++###",
"#####################@@@@@@ooo@@@@@@@@@@@@@@@@@@@@@@@@@@@++++++######",
"#####################@@@@@@ooo@@@@@@@@@@@@@@@@@@@@@@@@@@@++++++######",
"#####################@@@@@@ooo@@@@@@@@@@@@@@@@@@@@@@@@@@@++++++######",
"########################@@@ooo@@@@@@@@@@@@@@@@@@@@@@@@++++++#########",
"########################@@@ooo@@@@@@@@@@@@@@@@@@@@@@@@++++++#########",
"########################@@@ooo@@@@@@@@@@@@@@@@@@@@@@@@++++++#########",
"###########################+++@@@@@@@@@@@@@@@@@@@@@++++++############",
"###########################+++@@@@@@@@@@@@@@@@@@@@@++++++############",
"###########################+++@@@@@@@@@@@@@@@@@@@@@++++++############",
"##############################   @@@@@@@@@@@@@@@+++##################",
"##############################   @@@@@@@@@@@@@@@+++##################",
"##############################   @@@@@@@@@@@@@@@+++##################",
"###########################@@@+++            ########################",
"###########################@@@+++            ########################",
"###########################@@@+++            ########################",
"########################++++++@@@+++@@@++++++@@@+++##################",
"########################++++++@@@+++@@@++++++@@@+++##################",
"########################++++++@@@+++@@@++++++@@@+++##################",
"##################+++@@@   @@@@@@@@@+++@@@++++++@@@+++###############",
"##################+++@@@   @@@@@@@@@+++@@@++++++@@@+++###############",
"##################+++@@@   @@@@@@@@@+++@@@++++++@@@+++###############",
"###############+++@@@@@@   @@@@@@@@@@@@++++++++++++@@@+++############",
"###############+++@@@@@@   @@@@@@@@@@@@++++++++++++@@@+++############",
"###############+++@@@@@@   @@@@@@@@@@@@++++++++++++@@@+++############",
"###############@@@+++   XXX@@@@@@@@@+++   +++@@@++++++@@@############",
"###############@@@+++   XXX@@@@@@@@@+++   +++@@@++++++@@@############",
"###############@@@+++   XXX@@@@@@@@@+++   +++@@@++++++@@@############",
"############+++@@@+++XXX@@@@@@@@@               @@@+++@@@+++#########",
"############+++@@@+++XXX@@@@@@@@@               @@@+++@@@+++#########",
"############+++@@@+++XXX@@@@@@@@@               @@@+++@@@+++#########",
"#########+++@@@++++++XXX@@@@@@                     +++@@@@@@+++######",
"#########+++@@@++++++XXX@@@@@@                     +++@@@@@@+++######",
"#########+++@@@++++++XXX@@@@@@                     +++@@@@@@+++######",
"######+++@@@   +++######@@@   ++++++++++++++++++++++++      +++######",
"######+++@@@   +++######@@@   ++++++++++++++++++++++++      +++######",
"######+++@@@   +++######@@@   ++++++++++++++++++++++++      +++######",
"######@@@         ###XXXXXX@@@@@@@@@XXX@@@XXX@@@++++++      #########",
"######@@@         ###XXXXXX@@@@@@@@@XXX@@@XXX@@@++++++      #########",
"######@@@         ###XXXXXX@@@@@@@@@XXX@@@XXX@@@++++++      #########",
"#########@@@   +++XXXXXX@@@@@@@@@@@@@@@@@@@@@+++++++++++++++@@@######",
"#########@@@   +++XXXXXX@@@@@@@@@@@@@@@@@@@@@+++++++++++++++@@@######",
"#########@@@   +++XXXXXX@@@@@@@@@@@@@@@@@@@@@+++++++++++++++@@@######",
"#########@@@@@@+++###XXXXXX@@@@@@@@@@@@@@@+++@@@+++++++++@@@+++######",
"#########@@@@@@+++###XXXXXX@@@@@@@@@@@@@@@+++@@@+++++++++@@@+++######",
"#########@@@@@@+++###XXXXXX@@@@@@@@@@@@@@@+++@@@+++++++++@@@+++######",
"######+++@@@+++###@@@         @@@@@@@@@@@@@@@+++@@@+++###@@@@@@+++###",
"######+++@@@+++###@@@         @@@@@@@@@@@@@@@+++@@@+++###@@@@@@+++###",
"######+++@@@+++###@@@         @@@@@@@@@@@@@@@+++@@@+++###@@@@@@+++###",
"######+++@@@+++###@@@@@@++++++   XXX@@@@@@@@@XXX+++   +++   @@@+++###",
"######+++@@@+++###@@@@@@++++++   XXX@@@@@@@@@XXX+++   +++   @@@+++###",
"######+++@@@+++###@@@@@@++++++   XXX@@@@@@@@@XXX+++   +++   @@@+++###",
"######+++@@@+++######@@@@@@@@@+++   XXXXXXXXX+++   @@@+++###   +++###",
"######+++@@@+++######@@@@@@@@@+++   XXXXXXXXX+++   @@@+++###   +++###",
"######+++@@@+++######@@@@@@@@@+++   XXXXXXXXX+++   @@@+++###   +++###",
"######@@@   ############@@@@@@@@@+++XXXXXX+++   @@@++++++      ######",
"######@@@   ############@@@@@@@@@+++XXXXXX+++   @@@++++++      ######",
"######@@@   ############@@@@@@@@@+++XXXXXX+++   @@@++++++      ######",
"######         ############@@@@@@@@@######@@@@@@@@@+++###   #########",
"######         ############@@@@@@@@@######@@@@@@@@@+++###   #########",
"######         ############@@@@@@@@@######@@@@@@@@@+++###   #########",
"#########         #########         ######+++@@@      +++############",
"#########         #########         ######+++@@@      +++############",
"#########         #########         ######+++@@@      +++############",
"########################@@@@@@@@@+++#########+++@@@+++++++++#########",
"########################@@@@@@@@@+++#########+++@@@+++++++++#########",
"########################@@@@@@@@@+++#########+++@@@+++++++++#########",
"###############......@@@@@@@@@+++@@@+++......@@@@@@@@@@@@+++#########",
"###############......@@@@@@@@@+++@@@+++......@@@@@@@@@@@@+++#########",
"###############......@@@@@@@@@+++@@@+++......@@@@@@@@@@@@+++#########",
"######...###............@@@@@@@@@+++........................#########",
"######...###............@@@@@@@@@+++........................#########",
"######...###............@@@@@@@@@+++........................#########",
"...######...###.................................#####################",
"...######...###.................................#####################",
"...######...###.................................#####################",
"############...###......######...####################################",
"############...###......######...####################################",
"############...###......######...####################################"
};
